<?xml version="1.0" encoding="UTF-8"?>
<svg xmlns="http://www.w3.org/2000/svg" viewBox="0 0 720 340" width="720" height="340" role="img"><rect x="0" y="0" width="720" height="340" fill="#ffffff"/><line x1="50" y1="294" x2="704" y2="294" stroke="#eae7df" stroke-width="1"/><text x="42" y="298" text-anchor="end" font-family="'Space Mono', ui-monospace, Menlo, monospace" font-size="11" fill="#93939f">0.0&#215;</text><line x1="50" y1="240.4" x2="704" y2="240.4" stroke="#eae7df" stroke-width="1"/><text x="42" y="244.4" text-anchor="end" font-family="'Space Mono', ui-monospace, Menlo, monospace" font-size="11" fill="#93939f">0.3&#215;</text><line x1="50" y1="186.8" x2="704" y2="186.8" stroke="#eae7df" stroke-width="1"/><text x="42" y="190.8" text-anchor="end" font-family="'Space Mono', ui-monospace, Menlo, monospace" font-size="11" fill="#93939f">0.6&#215;</text><line x1="50" y1="133.20000000000002" x2="704" y2="133.20000000000002" stroke="#eae7df" stroke-width="1"/><text x="42" y="137.20000000000002" text-anchor="end" font-family="'Space Mono', ui-monospace, Menlo, monospace" font-size="11" fill="#93939f">0.9&#215;</text><line x1="50" y1="79.60000000000002" x2="704" y2="79.60000000000002" stroke="#eae7df" stroke-width="1"/><text x="42" y="83.60000000000002" text-anchor="end" font-family="'Space Mono', ui-monospace, Menlo, monospace" font-size="11" fill="#93939f">1.2&#215;</text><line x1="50" y1="26" x2="704" y2="26" stroke="#eae7df" stroke-width="1"/><text x="42" y="30" text-anchor="end" font-family="'Space Mono', ui-monospace, Menlo, monospace" font-size="11" fill="#93939f">1.5&#215;</text><rect x="86.9" y="115.3" width="44.0" height="178.7" rx="4" fill="#2a78d6"/><text x="108.9" y="108.3" text-anchor="middle" font-family="'Space Mono', ui-monospace, Menlo, monospace" font-size="11.5" font-weight="700" fill="#212121">1.00&#215;</text><rect x="156.6" y="74.2" width="44.0" height="219.8" rx="4" fill="#d9591f"/><text x="178.6" y="67.2" text-anchor="middle" font-family="'Space Mono', ui-monospace, Menlo, monospace" font-size="11.5" font-weight="700" fill="#212121">1.23&#215;</text><rect x="226.4" y="48.2" width="44.0" height="245.8" rx="4" fill="#4a3aa7"/><text x="248.4" y="41.2" text-anchor="middle" font-family="'Space Mono', ui-monospace, Menlo, monospace" font-size="11.5" font-weight="700" fill="#212121">1.38&#215;</text><rect x="296.1" y="237.4" width="44.0" height="56.6" rx="4" fill="#129c68"/><text x="318.1" y="230.4" text-anchor="middle" font-family="'Space Mono', ui-monospace, Menlo, monospace" font-size="11.5" font-weight="700" fill="#212121">0.32&#215;</text><text x="213.5" y="326" text-anchor="middle" font-family="'Space Mono', ui-monospace, Menlo, monospace" font-size="12.5" font-weight="700" fill="#52525b">Nemotron-3 (free)</text><rect x="413.9" y="115.3" width="44.0" height="178.7" rx="4" fill="#2a78d6"/><text x="435.9" y="108.3" text-anchor="middle" font-family="'Space Mono', ui-monospace, Menlo, monospace" font-size="11.5" font-weight="700" fill="#212121">1.00&#215;</text><rect x="483.6" y="124.8" width="44.0" height="169.2" rx="4" fill="#d9591f"/><text x="505.6" y="117.8" text-anchor="middle" font-family="'Space Mono', ui-monospace, Menlo, monospace" font-size="11.5" font-weight="700" fill="#212121">0.95&#215;</text><rect x="553.4" y="105.5" width="44.0" height="188.5" rx="4" fill="#4a3aa7"/><text x="575.4" y="98.5" text-anchor="middle" font-family="'Space Mono', ui-monospace, Menlo, monospace" font-size="11.5" font-weight="700" fill="#212121">1.05&#215;</text><rect x="623.1" y="98.5" width="44.0" height="195.5" rx="4" fill="#129c68"/><text x="645.1" y="91.5" text-anchor="middle" font-family="'Space Mono', ui-monospace, Menlo, monospace" font-size="11.5" font-weight="700" fill="#212121">1.09&#215;</text><text x="540.5" y="326" text-anchor="middle" font-family="'Space Mono', ui-monospace, Menlo, monospace" font-size="12.5" font-weight="700" fill="#52525b">GPT-5.4-mini</text><line x1="50" y1="115.33333333333334" x2="704" y2="115.33333333333334" stroke="#93939f" stroke-width="1" stroke-dasharray="4 4"/><text x="377" y="108.33333333333334" text-anchor="middle" font-family="'Space Mono', ui-monospace, Menlo, monospace" font-size="10.5" fill="#93939f">full = 1.0&#215;</text><line x1="50" y1="294" x2="704" y2="294" stroke="#d4d1c9" stroke-width="1"/></svg>
