<?xml version="1.0" encoding="UTF-8"?>
<svg xmlns="http://www.w3.org/2000/svg" viewBox="0 0 720 320" width="720" height="320" role="img"><rect x="0" y="0" width="720" height="320" fill="#ffffff"/><line x1="50" y1="274" x2="704" y2="274" stroke="#eae7df" stroke-width="1"/><text x="42" y="278" text-anchor="end" font-family="'Space Mono', ui-monospace, Menlo, monospace" font-size="11" fill="#93939f">0</text><line x1="50" y1="238.57142857142858" x2="704" y2="238.57142857142858" stroke="#eae7df" stroke-width="1"/><text x="42" y="242.57142857142858" text-anchor="end" font-family="'Space Mono', ui-monospace, Menlo, monospace" font-size="11" fill="#93939f">1</text><line x1="50" y1="203.14285714285717" x2="704" y2="203.14285714285717" stroke="#eae7df" stroke-width="1"/><text x="42" y="207.14285714285717" text-anchor="end" font-family="'Space Mono', ui-monospace, Menlo, monospace" font-size="11" fill="#93939f">2</text><line x1="50" y1="167.71428571428572" x2="704" y2="167.71428571428572" stroke="#eae7df" stroke-width="1"/><text x="42" y="171.71428571428572" text-anchor="end" font-family="'Space Mono', ui-monospace, Menlo, monospace" font-size="11" fill="#93939f">3</text><line x1="50" y1="132.2857142857143" x2="704" y2="132.2857142857143" stroke="#eae7df" stroke-width="1"/><text x="42" y="136.2857142857143" text-anchor="end" font-family="'Space Mono', ui-monospace, Menlo, monospace" font-size="11" fill="#93939f">4</text><line x1="50" y1="96.85714285714286" x2="704" y2="96.85714285714286" stroke="#eae7df" stroke-width="1"/><text x="42" y="100.85714285714286" text-anchor="end" font-family="'Space Mono', ui-monospace, Menlo, monospace" font-size="11" fill="#93939f">5</text><line x1="50" y1="61.428571428571445" x2="704" y2="61.428571428571445" stroke="#eae7df" stroke-width="1"/><text x="42" y="65.42857142857144" text-anchor="end" font-family="'Space Mono', ui-monospace, Menlo, monospace" font-size="11" fill="#93939f">6</text><line x1="50" y1="26" x2="704" y2="26" stroke="#eae7df" stroke-width="1"/><text x="42" y="30" text-anchor="end" font-family="'Space Mono', ui-monospace, Menlo, monospace" font-size="11" fill="#93939f">7</text><rect x="86.9" y="274.0" width="44.0" height="0.0" rx="4" fill="#2a78d6"/><text x="108.9" y="267.0" text-anchor="middle" font-family="'Space Mono', ui-monospace, Menlo, monospace" font-size="11.5" font-weight="700" fill="#212121">0.0</text><rect x="156.6" y="268.7" width="44.0" height="5.3" rx="4" fill="#d9591f"/><text x="178.6" y="261.7" text-anchor="middle" font-family="'Space Mono', ui-monospace, Menlo, monospace" font-size="11.5" font-weight="700" fill="#212121">0.1</text><rect x="226.4" y="274.0" width="44.0" height="0.0" rx="4" fill="#4a3aa7"/><text x="248.4" y="267.0" text-anchor="middle" font-family="'Space Mono', ui-monospace, Menlo, monospace" font-size="11.5" font-weight="700" fill="#212121">0.0</text><rect x="296.1" y="274.0" width="44.0" height="0.0" rx="4" fill="#129c68"/><text x="318.1" y="267.0" text-anchor="middle" font-family="'Space Mono', ui-monospace, Menlo, monospace" font-size="11.5" font-weight="700" fill="#212121">0.0</text><text x="213.5" y="306" text-anchor="middle" font-family="'Space Mono', ui-monospace, Menlo, monospace" font-size="12.5" font-weight="700" fill="#52525b">Nemotron-3 (free)</text><rect x="413.9" y="245.7" width="44.0" height="28.3" rx="4" fill="#2a78d6"/><text x="435.9" y="238.7" text-anchor="middle" font-family="'Space Mono', ui-monospace, Menlo, monospace" font-size="11.5" font-weight="700" fill="#212121">0.8</text><rect x="483.6" y="236.8" width="44.0" height="37.2" rx="4" fill="#d9591f"/><text x="505.6" y="229.8" text-anchor="middle" font-family="'Space Mono', ui-monospace, Menlo, monospace" font-size="11.5" font-weight="700" fill="#212121">1.1</text><rect x="553.4" y="65.0" width="44.0" height="209.0" rx="4" fill="#4a3aa7"/><text x="575.4" y="58.0" text-anchor="middle" font-family="'Space Mono', ui-monospace, Menlo, monospace" font-size="11.5" font-weight="700" fill="#212121">5.9</text><rect x="623.1" y="40.2" width="44.0" height="233.8" rx="4" fill="#129c68"/><text x="645.1" y="33.2" text-anchor="middle" font-family="'Space Mono', ui-monospace, Menlo, monospace" font-size="11.5" font-weight="700" fill="#212121">6.6</text><text x="540.5" y="306" text-anchor="middle" font-family="'Space Mono', ui-monospace, Menlo, monospace" font-size="12.5" font-weight="700" fill="#52525b">GPT-5.4-mini</text><line x1="50" y1="274" x2="704" y2="274" stroke="#d4d1c9" stroke-width="1"/></svg>
