<?xml version="1.0" encoding="UTF-8"?>
<svg xmlns="http://www.w3.org/2000/svg" viewBox="0 0 720 320" width="720" height="320" role="img"><rect x="0" y="0" width="720" height="320" fill="#ffffff"/><line x1="50" y1="274" x2="704" y2="274" stroke="#eae7df" stroke-width="1"/><text x="42" y="278" text-anchor="end" font-family="'Space Mono', ui-monospace, Menlo, monospace" font-size="11" fill="#93939f">0%</text><line x1="50" y1="224.4" x2="704" y2="224.4" stroke="#eae7df" stroke-width="1"/><text x="42" y="228.4" text-anchor="end" font-family="'Space Mono', ui-monospace, Menlo, monospace" font-size="11" fill="#93939f">20%</text><line x1="50" y1="174.8" x2="704" y2="174.8" stroke="#eae7df" stroke-width="1"/><text x="42" y="178.8" text-anchor="end" font-family="'Space Mono', ui-monospace, Menlo, monospace" font-size="11" fill="#93939f">40%</text><line x1="50" y1="125.19999999999999" x2="704" y2="125.19999999999999" stroke="#eae7df" stroke-width="1"/><text x="42" y="129.2" text-anchor="end" font-family="'Space Mono', ui-monospace, Menlo, monospace" font-size="11" fill="#93939f">60%</text><line x1="50" y1="75.6" x2="704" y2="75.6" stroke="#eae7df" stroke-width="1"/><text x="42" y="79.6" text-anchor="end" font-family="'Space Mono', ui-monospace, Menlo, monospace" font-size="11" fill="#93939f">80%</text><line x1="50" y1="26" x2="704" y2="26" stroke="#eae7df" stroke-width="1"/><text x="42" y="30" text-anchor="end" font-family="'Space Mono', ui-monospace, Menlo, monospace" font-size="11" fill="#93939f">100%</text><rect x="86.9" y="125.2" width="44.0" height="148.8" rx="4" fill="#2a78d6"/><text x="108.9" y="118.2" text-anchor="middle" font-family="'Space Mono', ui-monospace, Menlo, monospace" font-size="11.5" font-weight="700" fill="#212121">60%</text><rect x="156.6" y="88.0" width="44.0" height="186.0" rx="4" fill="#d9591f"/><text x="178.6" y="81.0" text-anchor="middle" font-family="'Space Mono', ui-monospace, Menlo, monospace" font-size="11.5" font-weight="700" fill="#212121">75%</text><rect x="226.4" y="100.4" width="44.0" height="173.6" rx="4" fill="#4a3aa7"/><text x="248.4" y="93.4" text-anchor="middle" font-family="'Space Mono', ui-monospace, Menlo, monospace" font-size="11.5" font-weight="700" fill="#212121">70%</text><rect x="296.1" y="100.4" width="44.0" height="173.6" rx="4" fill="#129c68"/><text x="318.1" y="93.4" text-anchor="middle" font-family="'Space Mono', ui-monospace, Menlo, monospace" font-size="11.5" font-weight="700" fill="#212121">70%</text><text x="213.5" y="306" text-anchor="middle" font-family="'Space Mono', ui-monospace, Menlo, monospace" font-size="12.5" font-weight="700" fill="#52525b">Nemotron-3 (free)</text><rect x="413.9" y="38.4" width="44.0" height="235.6" rx="4" fill="#2a78d6"/><text x="435.9" y="31.4" text-anchor="middle" font-family="'Space Mono', ui-monospace, Menlo, monospace" font-size="11.5" font-weight="700" fill="#212121">95%</text><rect x="483.6" y="38.4" width="44.0" height="235.6" rx="4" fill="#d9591f"/><text x="505.6" y="31.4" text-anchor="middle" font-family="'Space Mono', ui-monospace, Menlo, monospace" font-size="11.5" font-weight="700" fill="#212121">95%</text><rect x="553.4" y="38.4" width="44.0" height="235.6" rx="4" fill="#4a3aa7"/><text x="575.4" y="31.4" text-anchor="middle" font-family="'Space Mono', ui-monospace, Menlo, monospace" font-size="11.5" font-weight="700" fill="#212121">95%</text><rect x="623.1" y="38.4" width="44.0" height="235.6" rx="4" fill="#129c68"/><text x="645.1" y="31.4" text-anchor="middle" font-family="'Space Mono', ui-monospace, Menlo, monospace" font-size="11.5" font-weight="700" fill="#212121">95%</text><text x="540.5" y="306" text-anchor="middle" font-family="'Space Mono', ui-monospace, Menlo, monospace" font-size="12.5" font-weight="700" fill="#52525b">GPT-5.4-mini</text><line x1="50" y1="274" x2="704" y2="274" stroke="#d4d1c9" stroke-width="1"/></svg>
